<svg width="23" height="23" viewBox="0 0 23 23" fill="none" xmlns="http://www.w3.org/2000/svg">
<path fill-rule="evenodd" clip-rule="evenodd" d="M7.75029 2.5C7.75032 1.11931 8.8696 2.873e-05 10.2503 5.53046e-10C11.631 -2.87289e-05 12.7503 1.11927 12.7503 2.5C12.7503 3.88069 11.631 4.99997 10.2503 5C8.86956 5.00003 7.75026 3.88073 7.75029 2.5ZM5.21455 4.5894C5.85553 4.8458 6.1673 5.57326 5.91091 6.21424L4.91091 8.71424C4.65452 9.35522 3.92706 9.66699 3.28608 9.4106C2.6451 9.1542 2.33333 8.42674 2.58972 7.78576L3.58972 5.28576C3.84611 4.64478 4.57357 4.33301 5.21455 4.5894ZM7.96349 5.53343C8.32421 5.44829 8.70411 5.52761 9.00063 5.74999C9.8089 6.35617 10.5456 6.59786 11.3622 6.58918C12.2278 6.57997 13.2883 6.28823 14.7204 5.61789C15.0435 5.46666 15.4158 5.46067 15.7436 5.60143C16.0713 5.74219 16.3234 6.01629 16.4362 6.35472L19.3134 14.9863L20.9189 14.5447C21.5845 14.3617 22.2725 14.7529 22.4556 15.4186C22.6386 16.0842 22.2474 16.7722 21.5818 16.9553L1.58176 22.4553C0.916116 22.6383 0.228111 22.2471 0.0450585 21.5814C-0.137994 20.9158 0.253225 20.2278 0.91887 20.0447L4.29828 19.1154C4.06741 19.0259 3.86299 18.8678 3.71707 18.6535C3.42228 18.2205 3.4287 17.6497 3.73315 17.2235C5.00512 15.4427 6.00767 13.4645 6.73759 11.6495C6.26898 11.2301 6.00048 10.682 5.94309 10.0506C5.88837 9.44855 6.03057 8.83014 6.23232 8.24253C6.43911 7.64023 6.74961 6.95685 7.13265 6.19091C7.29843 5.85941 7.60276 5.61858 7.96349 5.53343ZM9.03908 12.6269C8.55617 13.8227 7.96617 15.0778 7.26838 16.3124C7.60268 16.4649 7.86695 16.7627 7.96299 17.1468C8.05341 17.5085 7.97625 17.8728 7.78067 18.1577L10.3784 17.4434C10.1883 17.3841 10.012 17.2794 9.86651 17.1339C9.55603 16.8234 9.43122 16.3728 9.5377 15.9469C9.77709 14.9892 9.87903 14.3076 9.89137 13.8199C9.90365 13.3347 9.82484 13.122 9.77796 13.0361C9.71821 12.9265 9.59845 12.8033 9.03908 12.6269ZM13.7349 16.5203L16.8994 15.6501L14.4926 8.42979C13.4111 8.83779 12.3857 9.07844 11.3888 9.08904C10.996 9.09322 10.616 9.06166 10.2467 8.99526C10.1442 9.39619 10.0233 9.82244 9.8842 10.2683C10.6549 10.5212 11.4848 10.9444 11.9727 11.8389C12.3008 12.4405 12.4095 13.1341 12.3906 13.8832C12.3851 14.0986 12.3689 14.3251 12.3424 14.5635L12.4472 14.5373C13.117 14.3699 13.7956 14.7771 13.9631 15.4468C14.0602 15.8356 13.9638 16.2273 13.7349 16.5203ZM22.4476 19.3908C22.646 20.0521 22.2707 20.7489 21.6095 20.9473L16.6095 22.4473C15.9483 22.6457 15.2514 22.2704 15.053 21.6092C14.8547 20.9479 15.2299 20.2511 15.8911 20.0527L20.8911 18.5527C21.5524 18.3543 22.2492 18.7296 22.4476 19.3908Z" fill="#FF3B30"/>
</svg>
